<svg width="1376" height="215" viewBox="0 0 1376 215" fill="none" xmlns="http://www.w3.org/2000/svg">
<path d="M0 0.111828H69.6906V75.9152C69.6906 77.0333 70.5812 77.9277 71.6945 77.9277H195.156C196.269 77.9277 197.16 77.0333 197.16 75.9152V0.111828H266.851V214.888H197.16V138.861C197.16 137.743 196.269 136.849 195.156 136.849H71.6945C70.5812 136.849 69.6906 137.743 69.6906 138.861V214.888H0V0.111828ZM604.616 0.111828H674.307V155.632H816.249V214.888H604.616V0.111828ZM844.637 0.111828H1062.17V53.1071H914.328V83.2944H1056.27V131.482H914.328V162.005H1062.17V215H844.637V0.111828ZM1094.45 0.111828H1217.58L1306.31 187.72V0.111828H1376V214.888H1252.87L1164.15 26.9449V214.888H1094.45V0.111828ZM390.423 132.153L283.995 0H370.496L432.282 81.9527H435.399L497.52 0H584.132L477.592 132.153H468.797V214.888H399.107V132.153H390.312H390.423Z" fill="#1F2A19"/>
</svg>
