<svg width="35" height="19" viewBox="0 0 35 19" fill="none" xmlns="http://www.w3.org/2000/svg">
<path d="M26.9004 0.655273H16.6613V3.76185C16.6613 4.08922 16.3966 4.35391 16.0692 4.35391H10.7825C10.4551 4.35391 10.1904 4.08922 10.1904 3.76185V0.655273H0V4.40266H9.57048C9.89785 4.40266 10.1625 4.66735 10.1625 4.99472V7.66945H16.6822V4.99472C16.6822 4.66735 16.9469 4.40266 17.2742 4.40266H26.8935V0.655273H26.9004ZM26.9004 18.4171H16.6613V15.3105C16.6613 14.9831 16.3966 14.7184 16.0692 14.7184H10.7825C10.4551 14.7184 10.1904 14.9831 10.1904 15.3105V18.4171H0V14.6697H9.57048C9.89785 14.6697 10.1625 14.405 10.1625 14.0776V11.4029H16.6822V14.0776C16.6822 14.405 16.9469 14.6697 17.2742 14.6697H26.8935V18.4171H26.9004ZM20.3808 11.3959H26.9004V7.66945H20.3808V11.3959ZM0.0069669 11.3959H6.52659V7.66945H0.0069669V11.3959Z" fill="white"/>
<path d="M31.1263 6.07497C30.6788 6.07497 30.3098 5.98624 30.0191 5.80878C29.7311 5.62875 29.5163 5.39343 29.3749 5.10281C29.2334 4.81219 29.1627 4.49714 29.1627 4.15765C29.1627 3.80016 29.236 3.4774 29.3826 3.18935C29.5292 2.89873 29.7465 2.66855 30.0346 2.49881C30.3226 2.32906 30.6788 2.24419 31.1032 2.24419C31.5327 2.24419 31.8915 2.33035 32.1795 2.50266C32.4701 2.67498 32.6887 2.90644 32.8353 3.19706C32.9819 3.48511 33.0552 3.80531 33.0552 4.15765C33.0552 4.52285 32.9793 4.85077 32.8276 5.14138C32.6784 5.42943 32.4598 5.65704 32.1718 5.82421C31.8837 5.99138 31.5353 6.07497 31.1263 6.07497ZM30.3239 5.20311C30.3239 5.07966 30.3239 4.96136 30.3239 4.84819C30.3239 4.73503 30.3239 4.61158 30.3239 4.47785V3.73715C30.3239 3.60084 30.3239 3.47611 30.3239 3.36295C30.3239 3.24722 30.3239 3.12762 30.3239 3.00417L30.7251 3.0659C30.7251 3.1842 30.7251 3.29865 30.7251 3.40924C30.7251 3.51983 30.7251 3.63942 30.7251 3.76802V4.47785C30.7251 4.61158 30.7251 4.73503 30.7251 4.84819C30.7251 4.96136 30.7251 5.07966 30.7251 5.20311H30.3239ZM31.1225 5.75477C31.4645 5.75477 31.7526 5.68662 31.9866 5.55031C32.2232 5.414 32.402 5.22626 32.5228 4.98707C32.6463 4.74789 32.708 4.47142 32.708 4.15765C32.708 3.84903 32.6489 3.57513 32.5306 3.33594C32.4123 3.09676 32.2335 2.90773 31.9943 2.76885C31.7577 2.62997 31.462 2.56053 31.107 2.56053C30.7547 2.56053 30.4589 2.62997 30.2198 2.76885C29.9831 2.90516 29.8044 3.09419 29.6835 3.33594C29.5652 3.57513 29.5061 3.84903 29.5061 4.15765C29.5061 4.38397 29.5382 4.59487 29.6025 4.79033C29.6694 4.98322 29.7684 5.15167 29.8996 5.2957C30.0333 5.43972 30.2017 5.55288 30.4049 5.63518C30.6107 5.71491 30.8499 5.75477 31.1225 5.75477ZM31.6356 5.20311C31.5687 5.10538 31.5044 5.01279 31.4427 4.92535C31.3809 4.83791 31.3205 4.75175 31.2614 4.66688L30.9142 4.16922L31.161 4.32354H30.648V4.03806H31.0222C31.1662 4.03806 31.2819 4.01106 31.3694 3.95705C31.4594 3.90304 31.5044 3.80402 31.5044 3.66C31.5044 3.55712 31.4812 3.48254 31.435 3.43625C31.3887 3.38995 31.3334 3.36166 31.2691 3.35138C31.2073 3.34109 31.152 3.33594 31.1032 3.33594H30.5978L30.3239 3.00417C30.4165 3.00417 30.5297 3.00417 30.6634 3.00417C30.7971 3.00417 30.9489 3.00417 31.1186 3.00417C31.3707 3.00417 31.5674 3.05175 31.7089 3.14691C31.8529 3.24207 31.9249 3.40024 31.9249 3.62142C31.9249 3.80402 31.8683 3.95962 31.7551 4.08821C31.6446 4.2168 31.4517 4.2811 31.1765 4.2811L31.3308 4.12679L31.651 4.56658C31.7307 4.67459 31.8117 4.78647 31.894 4.9022C31.9789 5.01794 32.0509 5.11824 32.1101 5.20311H31.6356Z" fill="white"/>
</svg>
