<svg width="108" height="17" viewBox="0 0 108 17" fill="none" xmlns="http://www.w3.org/2000/svg">
<path d="M0 0.00874137H5.44308V5.93412C5.44308 6.02152 5.51264 6.09143 5.59959 6.09143H15.2424C15.3293 6.09143 15.3989 6.02152 15.3989 5.93412V0.00874137H20.8419V16.7973H15.3989V10.8545C15.3989 10.7671 15.3293 10.6972 15.2424 10.6972H5.59959C5.51264 10.6972 5.44308 10.7671 5.44308 10.8545V16.7973H0V0.00874137ZM47.2226 0.00874137H52.6657V12.1654H63.7518V16.7973H47.2226V0.00874137ZM65.9691 0.00874137H82.9591V4.15126H71.4121V6.51093H82.4983V10.2777H71.4121V12.6635H82.9591V16.8061H65.9691V0.00874137ZM85.4807 0.00874137H95.0974L102.027 14.6736V0.00874137H107.47V16.7973H97.8537L90.9238 2.10622V16.7973H85.4807V0.00874137ZM30.4934 10.3301L22.181 0H28.937L33.7627 6.40606H34.0062L38.858 0H45.6227L37.3016 10.3301H36.6147V16.7973H31.1716V10.3301H30.4847H30.4934Z" fill="white"/>
</svg>
