<svg width="24" height="24" viewBox="0 0 24 24" fill="none" xmlns="http://www.w3.org/2000/svg">
<g clip-path="url(#clip0_4336_183)">
<path d="M19 18.59C18.7348 18.59 18.4804 18.6954 18.2929 18.8829C18.1054 19.0704 18 19.3248 18 19.59V21.75C18 21.8163 17.9737 21.8799 17.9268 21.9268C17.8799 21.9737 17.8163 22 17.75 22H2.25C2.18702 22.0002 2.12628 21.9766 2.07993 21.934C2.03359 21.8913 2.00504 21.8328 2 21.77V4.77C2 4.7037 2.02634 4.64011 2.07322 4.59322C2.12011 4.54634 2.1837 4.52 2.25 4.52H3.5C3.76522 4.52 4.01957 4.41464 4.20711 4.22711C4.39464 4.03957 4.5 3.78522 4.5 3.52C4.5 3.25478 4.39464 3.00043 4.20711 2.81289C4.01957 2.62536 3.76522 2.52 3.5 2.52H2C1.46957 2.52 0.960859 2.73071 0.585786 3.10579C0.210714 3.48086 0 3.98957 0 4.52L0 22C0 22.5304 0.210714 23.0391 0.585786 23.4142C0.960859 23.7893 1.46957 24 2 24H18C18.5304 24 19.0391 23.7893 19.4142 23.4142C19.7893 23.0391 20 22.5304 20 22V19.59C20 19.3248 19.8946 19.0704 19.7071 18.8829C19.5196 18.6954 19.2652 18.59 19 18.59ZM16.5 4.5H17.75C17.8163 4.5 17.8799 4.52634 17.9268 4.57322C17.9737 4.62011 18 4.6837 18 4.75V5.5C18 5.76522 18.1054 6.01957 18.2929 6.20711C18.4804 6.39464 18.7348 6.5 19 6.5C19.2652 6.5 19.5196 6.39464 19.7071 6.20711C19.8946 6.01957 20 5.76522 20 5.5V4.5C20 3.96957 19.7893 3.46086 19.4142 3.08579C19.0391 2.71071 18.5304 2.5 18 2.5H16.5C16.2348 2.5 15.9804 2.60536 15.7929 2.79289C15.6054 2.98043 15.5 3.23478 15.5 3.5C15.5 3.76522 15.6054 4.01957 15.7929 4.20711C15.9804 4.39464 16.2348 4.5 16.5 4.5Z" fill="#81918D"/>
<path d="M7 5.5H13C13.3978 5.5 13.7794 5.34196 14.0607 5.06066C14.342 4.77936 14.5 4.39782 14.5 4V3.5C14.5 3.10218 14.342 2.72064 14.0607 2.43934C13.7794 2.15804 13.3978 2 13 2H12C12 1.46957 11.7893 0.960859 11.4142 0.585786C11.0391 0.210714 10.5304 0 10 0C9.46957 0 8.96086 0.210714 8.58579 0.585786C8.21071 0.960859 8 1.46957 8 2H7C6.60218 2 6.22064 2.15804 5.93934 2.43934C5.65804 2.72064 5.5 3.10218 5.5 3.5V4C5.5 4.39782 5.65804 4.77936 5.93934 5.06066C6.22064 5.34196 6.60218 5.5 7 5.5ZM4 10C4 10.2652 4.10536 10.5196 4.29289 10.7071C4.48043 10.8946 4.73478 11 5 11H13C13.2652 11 13.5196 10.8946 13.7071 10.7071C13.8946 10.5196 14 10.2652 14 10C14 9.73478 13.8946 9.48043 13.7071 9.29289C13.5196 9.10536 13.2652 9 13 9H5C4.73478 9 4.48043 9.10536 4.29289 9.29289C4.10536 9.48043 4 9.73478 4 10ZM5 14C4.73478 14 4.48043 14.1054 4.29289 14.2929C4.10536 14.4804 4 14.7348 4 15C4 15.2652 4.10536 15.5196 4.29289 15.7071C4.48043 15.8946 4.73478 16 5 16H9.5C9.76522 16 10.0196 15.8946 10.2071 15.7071C10.3946 15.5196 10.5 15.2652 10.5 15C10.5 14.7348 10.3946 14.4804 10.2071 14.2929C10.0196 14.1054 9.76522 14 9.5 14H5ZM23.41 8.24C23.0353 7.8675 22.5284 7.65841 22 7.65841C21.4716 7.65841 20.9647 7.8675 20.59 8.24L12.72 16.11C12.6709 16.1576 12.6333 16.2157 12.61 16.28L11.19 19.81C11.1547 19.9011 11.1463 20.0004 11.1658 20.0961C11.1853 20.1919 11.2319 20.28 11.3 20.35C11.3686 20.4204 11.4568 20.4685 11.5531 20.4881C11.6494 20.5077 11.7493 20.4979 11.84 20.46L15.38 19.05C15.4425 19.0232 15.5 18.986 15.55 18.94L23.41 11.07C23.596 10.8843 23.7435 10.6637 23.8441 10.4209C23.9448 10.1781 23.9966 9.91783 23.9966 9.655C23.9966 9.39217 23.9448 9.13192 23.8441 8.88912C23.7435 8.64632 23.596 8.42575 23.41 8.24Z" fill="#81918D"/>
</g>
<defs>
<clipPath id="clip0_4336_183">
<rect width="24" height="24" fill="white"/>
</clipPath>
</defs>
</svg>
