<svg width="25" height="25" viewBox="0 0 25 25" fill="none" xmlns="http://www.w3.org/2000/svg">
<path d="M6.82111 11.2228C8.34111 14.21 10.79 16.6589 13.7772 18.1789L16.0994 15.8567C16.395 15.5611 16.8067 15.4767 17.1761 15.5928C18.3583 15.9833 19.625 16.1944 20.9444 16.1944C21.2244 16.1944 21.4929 16.3057 21.6908 16.5036C21.8888 16.7016 22 16.97 22 17.25V20.9444C22 21.2244 21.8888 21.4929 21.6908 21.6908C21.4929 21.8888 21.2244 22 20.9444 22C16.1853 22 11.621 20.1094 8.25581 16.7442C4.89057 13.379 3 8.81472 3 4.05556C3 3.7756 3.11121 3.50712 3.30917 3.30917C3.50712 3.11121 3.7756 3 4.05556 3H7.75C8.02995 3 8.29844 3.11121 8.49639 3.30917C8.69435 3.50712 8.80556 3.7756 8.80556 4.05556C8.80556 5.375 9.01667 6.64167 9.40722 7.82389C9.52333 8.19333 9.43889 8.605 9.14333 8.90056L6.82111 11.2228Z" fill="#81918D"/>
</svg>
