<svg width="69" height="45" viewBox="0 0 69 45" fill="none" xmlns="http://www.w3.org/2000/svg">
<path d="M69 0H42.7364V7.87059C42.7364 8.7 42.0575 9.37058 41.2178 9.37058H27.6572C26.8175 9.37058 26.1385 8.7 26.1385 7.87059V0H0V9.49411H24.5484C25.3881 9.49411 26.0671 10.1647 26.0671 10.9941V17.7706H42.79V10.9941C42.79 10.1647 43.4689 9.49411 44.3087 9.49411H68.9821V0H69ZM69 45H42.7364V37.1294C42.7364 36.3 42.0575 35.6294 41.2178 35.6294H27.6572C26.8175 35.6294 26.1385 36.3 26.1385 37.1294V45H0V35.5059H24.5484C25.3881 35.5059 26.0671 34.8353 26.0671 34.0059V27.2294H42.79V34.0059C42.79 34.8353 43.4689 35.5059 44.3087 35.5059H68.9821V45H69ZM52.2771 27.2118H69V17.7706H52.2771V27.2118ZM0.0178702 27.2118H16.7408V17.7706H0.0178702V27.2118Z" fill="#1F2A19"/>
</svg>
