<svg width="263" height="41" viewBox="0 0 263 41" fill="none" xmlns="http://www.w3.org/2000/svg">
<path d="M0 0.0210933H13.3018V14.3193C13.3018 14.5302 13.4718 14.6989 13.6843 14.6989H37.2493C37.4618 14.6989 37.6318 14.5302 37.6318 14.3193V0.0210933H50.9336V40.5327H37.6318V26.1923C37.6318 25.9814 37.4618 25.8127 37.2493 25.8127H13.6843C13.4718 25.8127 13.3018 25.9814 13.3018 26.1923V40.5327H0V0.0210933ZM115.403 0.0210933H128.705V29.3556H155.797V40.5327H115.403V0.0210933ZM161.215 0.0210933H202.736V10.0172H174.517V15.7112H201.61V24.8004H174.517V30.5577H202.736V40.5538H161.215V0.0210933ZM208.898 0.0210933H232.399L249.335 35.4081V0.0210933H262.636V40.5327H239.135L222.2 5.08241V40.5327H208.898V0.0210933ZM74.5199 24.927L54.2059 0H70.7163L82.5095 15.4581H83.1044L94.9613 0H111.493L91.1578 24.927H89.4791V40.5327H76.1773V24.927H74.4986H74.5199Z" fill="#443C3B"/>
</svg>
