<svg width="24" height="25" viewBox="0 0 24 25" fill="none" xmlns="http://www.w3.org/2000/svg">
<path d="M15.5 14.5833H14.71L14.43 14.3021C15.444 13.0772 16.0012 11.5132 16 9.89584C16 8.55669 15.6188 7.24762 14.9046 6.13416C14.1903 5.02071 13.1752 4.15287 11.9874 3.6404C10.7997 3.12793 9.49279 2.99385 8.23192 3.2551C6.97104 3.51636 5.81285 4.16122 4.90381 5.10813C3.99477 6.05505 3.3757 7.2615 3.1249 8.57491C2.87409 9.88832 3.00282 11.2497 3.49479 12.4869C3.98676 13.7241 4.81988 14.7816 5.8888 15.5256C6.95772 16.2696 8.21442 16.6667 9.5 16.6667C11.11 16.6667 12.59 16.0521 13.73 15.0313L14 15.3229V16.1458L19 21.3438L20.49 19.7917L15.5 14.5833ZM9.5 14.5833C7.01 14.5833 5 12.4896 5 9.89584C5 7.30209 7.01 5.20834 9.5 5.20834C11.99 5.20834 14 7.30209 14 9.89584C14 12.4896 11.99 14.5833 9.5 14.5833Z" fill="white"/>
</svg>
