<svg width="677" height="866" viewBox="0 0 677 866" fill="none" xmlns="http://www.w3.org/2000/svg">
<path opacity="0.3" d="M240.5 2C481.03 2 676 194.975 676 433C676 671.025 481.03 864 240.5 864C-0.0298066 864 -195 671.025 -195 433C-195 194.975 -0.0298066 2 240.5 2Z" stroke="#81918D" stroke-width="2"/>
<path opacity="0.3" d="M240.5 1C318.617 1 389.468 49.1912 440.836 127.372C492.199 205.545 524 313.597 524 433C524 552.403 492.199 660.455 440.836 738.628C389.468 816.809 318.617 865 240.5 865C162.383 865 91.5323 816.809 40.1641 738.628C-11.1987 660.455 -43 552.403 -43 433C-43 313.597 -11.1987 205.545 40.1641 127.372C91.5323 49.1912 162.383 1 240.5 1Z" stroke="#81918D" stroke-width="2"/>
</svg>
