<svg width="873" height="866" viewBox="0 0 873 866" fill="none" xmlns="http://www.w3.org/2000/svg">
<path opacity="0.3" d="M436.5 2C677.03 2 872 194.975 872 433C872 671.025 677.03 864 436.5 864C195.97 864 1 671.025 1 433C1 194.975 195.97 2 436.5 2Z" stroke="#81918D" stroke-width="2"/>
<path opacity="0.3" d="M436.5 1C514.617 1 585.468 49.1912 636.836 127.372C688.199 205.545 720 313.597 720 433C720 552.403 688.199 660.455 636.836 738.628C585.468 816.809 514.617 865 436.5 865C358.383 865 287.532 816.809 236.164 738.628C184.801 660.455 153 552.403 153 433C153 313.597 184.801 205.545 236.164 127.372C287.532 49.1912 358.383 1 436.5 1Z" stroke="#81918D" stroke-width="2"/>
</svg>
