<svg width="1373" height="215" viewBox="0 0 1373 215" fill="none" xmlns="http://www.w3.org/2000/svg">
<path d="M0 0.111828H69.5387V75.9152C69.5387 77.0333 70.4273 77.9277 71.5382 77.9277H194.73C195.841 77.9277 196.73 77.0333 196.73 75.9152V0.111828H266.269V214.888H196.73V138.861C196.73 137.743 195.841 136.849 194.73 136.849H71.5382C70.4273 136.849 69.5387 137.743 69.5387 138.861V214.888H0V0.111828ZM603.298 0.111828H672.837V155.632H814.469V214.888H603.298V0.111828ZM842.795 0.111828H1059.85V53.1071H912.334V83.2944H1053.97V131.482H912.334V162.005H1059.85V215H842.795V0.111828ZM1092.07 0.111828H1214.93L1303.46 187.72V0.111828H1373V214.888H1250.14L1161.61 26.9449V214.888H1092.07V0.111828ZM389.572 132.153L283.376 0H369.688L431.34 81.9527H434.45L496.435 0H582.859L476.551 132.153H467.775V214.888H398.237V132.153H389.461H389.572Z" fill="#1F2A19"/>
</svg>
