<?xml version="1.0" encoding="UTF-8"?>
<svg xmlns="http://www.w3.org/2000/svg" xmlns:xlink="http://www.w3.org/1999/xlink" width="32px" height="32px" viewBox="0 0 32 32" version="1.1">
<g id="surface1">
<path style=" stroke:none;fill-rule:nonzero;fill:rgb(50.588238%,56.862748%,55.29412%);fill-opacity:1;" d="M 32 5.523438 L 19.84375 5.523438 L 19.84375 9.179688 C 19.84375 9.5625 19.535156 9.875 19.144531 9.875 L 12.863281 9.875 C 12.476562 9.875 12.160156 9.566406 12.160156 9.179688 L 12.160156 5.523438 L 0.0664062 5.523438 L 0.0664062 9.929688 L 11.433594 9.929688 C 11.820312 9.929688 12.132812 10.238281 12.132812 10.625 L 12.132812 13.773438 L 19.875 13.773438 L 19.875 10.625 C 19.875 10.242188 20.183594 9.929688 20.574219 9.929688 L 32 9.929688 Z M 32 26.410156 L 19.84375 26.410156 L 19.84375 22.753906 C 19.84375 22.371094 19.535156 22.058594 19.144531 22.058594 L 12.863281 22.058594 C 12.476562 22.058594 12.160156 22.367188 12.160156 22.753906 L 12.160156 26.410156 L 0.0664062 26.410156 L 0.0664062 22.003906 L 11.433594 22.003906 C 11.820312 22.003906 12.132812 21.695312 12.132812 21.304688 L 12.132812 18.15625 L 19.875 18.15625 L 19.875 21.304688 C 19.875 21.6875 20.183594 22.003906 20.574219 22.003906 L 32 22.003906 Z M 24.261719 18.15625 L 32 18.15625 L 32 13.777344 L 24.261719 13.777344 Z M 0.0664062 18.15625 L 7.804688 18.15625 L 7.804688 13.777344 L 0.0664062 13.777344 Z M 0.0664062 18.15625 "/>
</g>
</svg>
