<svg width="28" height="28" viewBox="0 0 28 28" fill="none" xmlns="http://www.w3.org/2000/svg">
<rect x="0.576457" y="0.576457" width="26.2289" height="26.2319" rx="5.80514" stroke="white" stroke-width="1.15291"/>
<path d="M16.2788 6.53589V8.36304H17.3481C18.2733 8.36313 19.021 9.11342 19.021 10.0359V15.782L19.1235 15.8191C20.1296 16.1738 20.8481 17.1334 20.8481 18.2585C20.848 19.686 19.6906 20.8462 18.2603 20.8464C16.8297 20.8464 15.6726 19.6891 15.6724 18.2585C15.6724 17.1336 16.3927 16.1729 17.396 15.8181L17.4985 15.782V9.88159H16.0581L16.2788 10.1023V11.7117H15.5815L12.9937 9.1228L15.5815 6.53589H16.2788ZM9.12256 17.1921C8.53223 17.1921 8.05322 17.6711 8.05322 18.2615C8.05333 18.8517 8.5323 19.3298 9.12256 19.3298C9.71264 19.3296 10.1908 18.8516 10.1909 18.2615C10.1909 17.6713 9.7127 17.1924 9.12256 17.1921ZM18.2603 17.1921C17.6699 17.1921 17.1909 17.6711 17.1909 18.2615C17.191 18.8517 17.67 19.3298 18.2603 19.3298C18.8504 19.3296 19.3285 18.8516 19.3286 18.2615C19.3286 17.6713 18.8504 17.1923 18.2603 17.1921ZM9.12256 8.05444C8.53223 8.05444 8.05322 8.53345 8.05322 9.12378C8.05336 9.71399 8.53231 10.1921 9.12256 10.1921C9.71262 10.1919 10.1908 9.71386 10.1909 9.12378C10.1909 8.53358 9.7127 8.05466 9.12256 8.05444ZM8.36475 11.5994L8.26123 11.5632C7.25532 11.2085 6.5377 10.2488 6.5376 9.12378C6.5376 7.69605 7.69491 6.53589 9.12549 6.53589C10.5561 6.53602 11.7134 7.69317 11.7134 9.12378C11.7133 10.2486 10.992 11.2085 9.98877 11.5632L9.88623 11.5994V15.7859L9.98877 15.822C10.9948 16.1768 11.7134 17.1363 11.7134 18.2615C11.7133 19.689 10.5559 20.8492 9.12549 20.8494C7.69486 20.8494 6.53771 19.6921 6.5376 18.2615C6.5376 17.1367 7.25815 16.1769 8.26123 15.822L8.36475 15.7849V11.5994Z" fill="white" stroke="#443C3B" stroke-width="0.308078"/>
</svg>
