<svg width="50" height="53" viewBox="0 0 50 53" fill="none" xmlns="http://www.w3.org/2000/svg">
<path d="M49.9589 27.2245V0H0.00567452V27.2245C0.00567452 27.2245 -0.204852 31.3615 1.93874 35.9561C3.37418 39.0637 6.01539 42.3619 10.0155 44.764C18.8386 50.1022 22.7048 52.1993 22.7048 52.1993C22.7048 52.1993 24.0445 52.9428 25.1163 53C25.767 52.9619 27.2982 52.1993 27.2982 52.1993C27.2982 52.1993 30.3796 50.7885 39.9874 44.764C43.7387 42.4191 46.3225 39.464 47.7962 36.509C50.1695 31.7237 49.9972 27.2245 49.9972 27.2245H49.9589ZM22.0349 33.3442C22.0349 33.3442 11.049 23.5259 11.3935 23.1637L16.2548 18.3212L21.9583 24.0025L34.9155 11.0957L39.6429 15.8047L22.0349 33.3442Z" fill="#A6887A"/>
</svg>
